<svg xmlns="http://www.w3.org/2000/svg" viewBox="0 -56 256 312" width="256" height="312" role="img" aria-label="YuTuTui! mark">
<defs>
    <radialGradient id="bg" cx="0.25" cy="0.15" r="1"><stop offset="0" stop-color="#2a273f"/><stop offset="1" stop-color="#191724"/></radialGradient>
    <filter id="glow" x="-40%" y="-40%" width="180%" height="180%"><feGaussianBlur stdDeviation="10"/></filter>
  </defs>
<polygon points="30,72 22,-48 112,14" fill="#26233a" stroke="#ffffff" stroke-opacity="0.10" stroke-width="2" stroke-linejoin="round"/>
<polygon points="44,56 36,-22 96,22" fill="#ebbcba" stroke="#ebbcba" stroke-width="6" stroke-linejoin="round"/>
<polygon points="226,72 234,-48 144,14" fill="#26233a" stroke="#ffffff" stroke-opacity="0.10" stroke-width="2" stroke-linejoin="round"/>
<polygon points="212,56 220,-22 160,22" fill="#ebbcba" stroke="#ebbcba" stroke-width="6" stroke-linejoin="round"/>
<rect width="256" height="256" rx="58" fill="url(#bg)"/>
<rect x="1" y="1" width="254" height="254" rx="57" fill="none" stroke="#ffffff" stroke-opacity="0.07" stroke-width="2"/>
<g id="mark">
    <path d="M62 78 L112 128 L62 178" fill="none" stroke="#f6c177" stroke-width="22" stroke-linecap="round" stroke-linejoin="round"/>
    <rect x="136" y="128" width="16" height="50" rx="8" fill="#eb6f92"/>
    <rect x="160" y="96"  width="16" height="82" rx="8" fill="#c4a7e7"/>
    <rect x="184" y="116" width="16" height="62" rx="8" fill="#9ccfd8"/>
  </g>
  <use href="#mark" filter="url(#glow)" opacity="0.45"/>
  <use href="#mark"/>
<path d="M206 44 Q210.48 55.519999999999996 222 60 Q210.48 64.48 206 76 Q201.52 64.48 190 60 Q201.52 55.519999999999996 206 44 Z" fill="#9ccfd8"/>
<path d="M228 86 Q230.24 91.76 236 94 Q230.24 96.24 228 102 Q225.76 96.24 220 94 Q225.76 91.76 228 86 Z" fill="#9ccfd8"/>
<g stroke="#eb6f92" stroke-opacity="0.6" stroke-width="6" stroke-linecap="round"><line x1="30" y1="232" x2="40" y2="218"/><line x1="44" y1="232" x2="54" y2="218"/></g>
<g stroke="#eb6f92" stroke-opacity="0.6" stroke-width="6" stroke-linecap="round"><line x1="198" y1="232" x2="208" y2="218"/><line x1="212" y1="232" x2="222" y2="218"/></g>
</svg>
